<svg width="48" height="48" viewBox="0 0 48 48" fill="none" xmlns="http://www.w3.org/2000/svg">
<path d="M9.48959 19.7652L12.5096 19.7716M12.5166 16.502L18.3243 16.5144M18.3173 19.7841L21.3373 19.7905" stroke="#7F89F8" stroke-width="4"/>
<path d="M26.9129 19.8024L29.9329 19.8089M29.9399 16.5393L35.7476 16.5517M35.7406 19.8213L38.7606 19.8277" stroke="#7F89F8" stroke-width="4"/>
<path d="M18.3553 2.03476L29.7384 2.05909M29.7314 5.3287L35.7714 5.34161M35.7654 8.14413L38.5531 8.15009M42.9579 12.3633L42.9455 18.2019M45.9655 18.2083L45.941 29.652M42.92 30.1126L42.908 35.7176M39.888 35.7112L39.882 38.5137M37.0943 38.5077L37.0878 41.5438M35.691 42.9421L29.8833 42.9297M29.8768 45.9657L18.0291 45.9404M18.2679 42.9048L12.4602 42.8924M5.27417 35.6372L5.28615 30.0322M2.03384 30.0252L2.0593 18.1145M5.31161 18.1214L5.32409 12.2829M8.34409 12.2893L8.35008 9.48679M9.74742 7.85497L12.5351 7.86093M12.5416 4.82487L18.3493 4.83728M39.9439 9.55433L39.9379 12.3568M11.0759 38.4521L11.0694 41.4882M8.05587 38.4457L8.06186 35.6432" stroke="#7F89F8" stroke-width="4"/>
<path d="M14.5134 30.8768V35.1548L33.3931 35.3687V30.8768M32.1203 29.5934H29.1504M29.1504 27.0266L18.5439 27.0266M18.5439 29.5934H15.7862" stroke="#7F89F8" stroke-width="4"/>
</svg>
