<svg width="44" height="44" viewBox="0 0 44 44" fill="none" xmlns="http://www.w3.org/2000/svg">
<path d="M8.77246 18.1702H11.5238M11.5238 15.1915H16.8148M16.8148 18.1702H19.5661" stroke="#7F89F8" stroke-width="4"/>
<path d="M24.6455 18.1702H27.3968M27.3968 15.1915H32.6878M32.6878 18.1702H35.4392" stroke="#7F89F8" stroke-width="4"/>
<path d="M16.8148 2H27.1852M27.1852 4.97872H32.6878M32.6878 7.53192H35.2275M39.2487 11.3617V16.6809M42 16.6809V27.1064M39.2487 27.5319V32.6383M36.4974 32.6383V35.1915M33.9577 35.1915V37.9574M32.6878 39.234H27.3968M27.3968 42H16.6032M16.8148 39.234H11.5238M4.96296 32.6383V27.5319M2 27.5319V16.6809M4.96296 16.6809V11.3617M7.71429 11.3617V8.80851M8.98413 7.31915H11.5238M11.5238 4.55319H16.8148M36.4974 8.80851V11.3617M10.254 35.1915V37.9574M7.50265 35.1915V32.6383M31.418 30.0851V25.8298L12.582 25.617V30.0851M13.8519 31.3617H16.8148M16.8148 33.9149H27.3968M27.3968 31.3617H30.1481" stroke="#7F89F8" stroke-width="4"/>
</svg>
