<svg width="90" height="90" viewBox="0 0 90 90" fill="none" xmlns="http://www.w3.org/2000/svg">
<path d="M13.125 16.875H18.9693C21.5782 16.875 22.8827 16.875 23.8648 17.5828C24.8469 18.2907 25.2594 19.5282 26.0844 22.0033L28.125 28.125" stroke="white" stroke-width="7" stroke-linecap="round"/>
<path d="M65.6248 65.625H30.1908C29.6425 65.625 29.3684 65.625 29.1604 65.6017C26.957 65.355 25.4475 63.2606 25.9103 61.0924C25.9539 60.8876 26.0406 60.6277 26.214 60.1076C26.4065 59.5301 26.5027 59.2414 26.6091 58.9868C27.6976 56.3783 30.1602 54.603 32.9791 54.3952C33.2545 54.375 33.5588 54.375 34.1675 54.375H54.3748" stroke="white" stroke-width="7" stroke-linecap="round" stroke-linejoin="round"/>
<path d="M53.1701 54.375H41.766C36.9688 54.375 34.5703 54.375 32.6918 53.1364C30.8132 51.8977 29.8684 49.6931 27.9787 45.2839L27.3456 43.8067C24.3101 36.7235 22.7922 33.182 24.4595 30.6535C26.1268 28.125 29.9799 28.125 37.686 28.125H57.4893C66.1106 28.125 70.4212 28.125 72.0472 30.9267C73.6732 33.7283 71.5342 37.4711 67.257 44.9565L66.1938 46.8172C64.0863 50.5046 63.033 52.3485 61.287 53.3618C59.541 54.375 57.4173 54.375 53.1701 54.375Z" stroke="white" stroke-width="7" stroke-linecap="round"/>
<path d="M61.5 80C63.9853 80 66 77.9853 66 75.5C66 73.0147 63.9853 71 61.5 71C59.0147 71 57 73.0147 57 75.5C57 77.9853 59.0147 80 61.5 80Z" fill="white"/>
<path d="M34.5 80C36.9853 80 39 77.9853 39 75.5C39 73.0147 36.9853 71 34.5 71C32.0147 71 30 73.0147 30 75.5C30 77.9853 32.0147 80 34.5 80Z" fill="white"/>
</svg>
