<svg width="90" height="90" viewBox="0 0 90 90" fill="none" xmlns="http://www.w3.org/2000/svg">
<path d="M13.125 16.875H18.9693C21.5782 16.875 22.8827 16.875 23.8648 17.5828C24.8469 18.2907 25.2594 19.5282 26.0844 22.0033L28.125 28.125" stroke="white" stroke-width="5" stroke-linecap="round"/>
<path d="M65.6251 65.625H30.191C29.6428 65.625 29.3687 65.625 29.1607 65.6017C26.9572 65.355 25.4478 63.2606 25.9105 61.0924C25.9542 60.8876 26.0409 60.6277 26.2142 60.1076C26.4067 59.5301 26.503 59.2414 26.6093 58.9868C27.6979 56.3783 30.1605 54.603 32.9794 54.3952C33.2547 54.375 33.5591 54.375 34.1677 54.375H54.3751" stroke="white" stroke-width="5" stroke-linecap="round" stroke-linejoin="round"/>
<path d="M53.1701 54.375H41.766C36.9688 54.375 34.5703 54.375 32.6918 53.1364C30.8132 51.8977 29.8684 49.6931 27.9787 45.2839L27.3456 43.8067C24.3101 36.7235 22.7922 33.182 24.4595 30.6535C26.1268 28.125 29.9799 28.125 37.686 28.125H57.4893C66.1106 28.125 70.4212 28.125 72.0472 30.9267C73.6732 33.7283 71.5342 37.4711 67.257 44.9565L66.1938 46.8172C64.0863 50.5046 63.033 52.3485 61.287 53.3618C59.541 54.375 57.4173 54.375 53.1701 54.375Z" stroke="white" stroke-width="5" stroke-linecap="round"/>
<path d="M63.75 78.75C65.8211 78.75 67.5 77.0711 67.5 75C67.5 72.9289 65.8211 71.25 63.75 71.25C61.6789 71.25 60 72.9289 60 75C60 77.0711 61.6789 78.75 63.75 78.75Z" fill="white"/>
<path d="M33.75 78.75C35.8211 78.75 37.5 77.0711 37.5 75C37.5 72.9289 35.8211 71.25 33.75 71.25C31.6789 71.25 30 72.9289 30 75C30 77.0711 31.6789 78.75 33.75 78.75Z" fill="white"/>
</svg>
