<svg width="50" height="50" viewBox="0 0 50 50" fill="none" xmlns="http://www.w3.org/2000/svg">
<path d="M40.7708 11.3333C42.6803 13.2505 43.7525 15.8462 43.7525 18.5521C43.7525 21.258 42.6803 23.8537 40.7708 25.7708L24.9999 41.6667L9.22909 25.7708C7.81084 24.343 6.84528 22.5286 6.45327 20.5547C6.06126 18.5807 6.26022 16.535 7.02524 14.6736C7.79026 12.8122 9.08735 11.2178 10.7541 10.09C12.4209 8.96226 14.3834 8.3512 16.3958 8.33334C19.0867 8.34967 21.6623 9.42784 23.5624 11.3333C24.1166 11.8817 24.5996 12.4977 24.9999 13.1667C25.4003 12.4977 25.8832 11.8817 26.4374 11.3333C27.3736 10.3835 28.4893 9.62916 29.7197 9.11431C30.95 8.59946 32.2704 8.33433 33.6041 8.33433C34.9378 8.33433 36.2582 8.59946 37.4885 9.11431C38.7188 9.62916 39.8345 10.3835 40.7708 11.3333Z" fill="white" stroke="white" stroke-width="4" stroke-linecap="round" stroke-linejoin="round"/>
</svg>
