<svg width="70" height="71" viewBox="0 0 70 71" fill="none" xmlns="http://www.w3.org/2000/svg">
<path d="M8.25383 48.106C13.1032 52.9622 19.561 55.8775 26.4106 56.3025C33.2603 56.7276 40.029 54.6332 45.4415 50.4138L64.0651 69.0375C64.7256 69.6754 65.6102 70.0284 66.5284 70.0204C67.4466 70.0124 68.325 69.6441 68.9743 68.9948C69.6236 68.3455 69.9919 67.4672 69.9999 66.5489C70.0078 65.6307 69.6549 64.7461 69.0169 64.0856L50.3933 45.462C54.7999 39.8069 56.8832 32.6838 56.2185 25.5454C55.5537 18.407 52.191 11.791 46.816 7.04676C41.441 2.3025 34.4587 -0.212702 27.293 0.0141071C20.1273 0.240916 13.318 3.19265 8.25383 8.26734C5.63713 10.8827 3.56138 13.988 2.14516 17.4058C0.728934 20.8237 0 24.4871 0 28.1867C0 31.8863 0.728934 35.5497 2.14516 38.9675C3.56138 42.3854 5.63713 45.4907 8.25383 48.106ZM13.2057 13.2262C16.6676 9.76426 21.2228 7.60981 26.0952 7.12988C30.9675 6.64995 35.8556 7.87423 39.9264 10.5941C43.9973 13.3141 46.9992 17.3613 48.4207 22.0463C49.8421 26.7314 49.5952 31.7643 47.7219 36.2877C45.8486 40.8111 42.4649 44.545 38.1473 46.8533C33.8297 49.1616 28.8453 49.9015 24.0434 48.9469C19.2414 47.9923 14.919 45.4022 11.8125 41.618C8.70612 37.8338 7.00786 33.0896 7.00712 28.1937C6.99752 25.4116 7.54049 22.6553 8.60455 20.0848C9.66861 17.5142 11.2326 15.1805 13.2057 13.2192V13.2262ZM11.7488 28.1832C11.7488 27.2544 12.1178 26.3636 12.7745 25.7069C13.4313 25.0501 14.322 24.6812 15.2508 24.6812C16.1796 24.6812 17.0704 25.0501 17.7271 25.7069C18.3839 26.3636 18.7528 27.2544 18.7528 28.1832C18.7556 30.6798 19.7486 33.0734 21.514 34.8388C23.2794 36.6042 25.673 37.5973 28.1697 37.6C29.0985 37.6 29.9892 37.969 30.646 38.6258C31.3027 39.2825 31.6717 40.1733 31.6717 41.102C31.6717 42.0308 31.3027 42.9216 30.646 43.5783C29.9892 44.2351 29.0985 44.604 28.1697 44.604C23.8177 44.5939 19.6469 42.8605 16.5696 39.7832C13.4923 36.7059 11.759 32.5351 11.7488 28.1832Z" fill="white"/>
</svg>
